<svg viewBox="0 0 54 60" fill="none" xmlns="http://www.w3.org/2000/svg">
<path d="M53.3821 17.64C53.3817 16.6312 53.1659 15.7397 52.7295 14.9746C52.3009 14.2222 51.6591 13.5916 50.7981 13.093C43.6911 8.99509 36.5772 4.90969 29.4725 0.807591C27.5571 -0.298195 25.7 -0.257883 23.7988 0.863778C20.97 2.53207 6.80725 10.6462 2.58692 13.0907C0.84887 14.0969 0.00313313 15.6367 0.00271538 17.6381C0 25.8793 0.00271538 34.1203 0 42.3617C0 43.3484 0.206996 44.2225 0.62412 44.9762C1.05294 45.7513 1.7038 46.3992 2.58462 46.9091C6.80516 49.3536 20.9698 57.4671 23.798 59.1358C25.7 60.2581 27.5571 60.2982 29.4732 59.192C36.578 55.0897 43.6923 51.0045 50.8004 46.9066C51.6812 46.3969 52.3321 45.7486 52.7609 44.9741C53.1774 44.2205 53.3848 43.3463 53.3848 42.3594C53.3848 42.3594 53.3848 25.8814 53.3821 17.64Z" fill="#0081CC"/>
<path d="M26.7741 29.9196L0.624123 44.9762C1.05294 45.7513 1.7038 46.3993 2.58463 46.9091C6.80516 49.3536 20.9698 57.4671 23.798 59.1359C25.7 60.2581 27.5571 60.2982 29.4732 59.192C36.5781 55.0897 43.6923 51.0045 50.8004 46.9066C51.6812 46.397 52.3321 45.7486 52.7609 44.9741L26.7741 29.9196Z" fill="#005198"/>
<path d="M53.3821 17.64C53.3817 16.6311 53.1659 15.7397 52.7295 14.9745L26.7741 29.9196L52.7609 44.9741C53.1774 44.2204 53.3844 43.3463 53.3848 42.3594C53.3848 42.3594 53.3848 25.8814 53.3821 17.64Z" fill="#0070BA"/>
<path d="M26.8314 10.1567C34.1721 10.1567 40.5811 14.1434 44.0139 20.0691L43.9804 20.0121L35.3437 24.9851C33.6421 22.1039 30.5226 20.1596 26.9442 20.1196L26.8314 20.1189C21.3745 20.1189 16.9504 24.5428 16.9504 29.9998C16.9504 31.7843 17.4261 33.4571 18.2535 34.902C19.9567 37.8754 23.1585 39.8809 26.8314 39.8809C30.527 39.8809 33.7471 37.8499 35.4416 34.8447L35.4004 34.9168L44.0242 39.9127C40.629 45.7883 34.3078 49.7626 27.0525 49.8419L26.8314 49.8431C19.4676 49.8431 13.0404 45.8319 9.61625 39.8748C7.94462 36.9666 6.98817 33.5951 6.98817 29.9998C6.98817 19.0409 15.8721 10.1567 26.8314 10.1567Z" fill="white"/>
</svg>