<svg viewBox="0 0 60 60" fill="none" xmlns="http://www.w3.org/2000/svg">
<rect width="100%" height="100%" rx="10" fill="#67297A"/>
<path d="M10.7574 36.9611C10.7559 37.3947 10.5728 37.7848 10.2802 38.0609H10.2787C9.97866 38.3429 9.57355 38.5155 9.12793 38.5155C8.68232 38.5155 8.27571 38.3414 7.97413 38.0593L7.97563 38.0609C7.68305 37.7848 7.5 37.3947 7.5 36.9626C7.5 36.5304 7.68305 36.1388 7.97713 35.8643C8.27721 35.5822 8.68382 35.4096 9.12943 35.4096C9.57505 35.4096 9.98016 35.5822 10.2817 35.8658L10.2802 35.8643C10.5728 36.1403 10.7559 36.5304 10.7574 36.9641V36.9611ZM27.0757 38.2604H24.1544L16.4634 26.1252C16.2863 25.8521 16.1228 25.537 15.9923 25.2054L15.9788 25.1694H15.9112C15.9728 25.7171 16.0073 26.3502 16.0073 26.9924C16.0073 27.1484 16.0058 27.3045 16.0013 27.4605V27.438V38.2604H13.4191V21.7515H16.5294L23.9639 33.6017C24.2775 34.0908 24.48 34.4299 24.5701 34.6144H24.6151C24.54 34.0533 24.498 33.4051 24.498 32.7464C24.498 32.6219 24.4995 32.4989 24.5025 32.3743V32.3923V21.75H27.0757V38.2604ZM39.6521 38.2604H30.6122V21.7515H39.2935V24.0771H33.2844V28.7539H38.8209V31.0675H33.2844V35.9498H39.6521V38.2604ZM52.5 24.0771H47.8728V38.2619H45.2006V24.0771H40.5838V21.7515H52.4985L52.5 24.0771Z" fill="white"/>
</svg>