<svg viewBox="0 0 60 60" fill="none" xmlns="http://www.w3.org/2000/svg">
<path d="M1.25434 33.0283C-0.418115 31.3558 -0.418115 28.6442 1.25434 26.9717L26.9717 1.25434C28.6442 -0.418115 31.3558 -0.418115 33.0283 1.25434L58.7456 26.9717C60.4181 28.6442 60.4181 31.3558 58.7456 33.0283L33.0283 58.7456C31.3558 60.4181 28.6442 60.4181 26.9717 58.7456L1.25434 33.0283Z" fill="#EE513B"/>
<path d="M21.7476 6.56042L19.1434 9.16473L25.8697 15.891C25.5975 16.4747 25.4456 17.1258 25.4456 17.8123C25.4456 19.7615 26.6702 21.4245 28.392 22.074V38.5282C26.6702 39.1777 25.4456 40.8408 25.4456 42.7899C25.4456 45.3048 27.4843 47.3435 29.9992 47.3435C32.514 47.3435 34.5527 45.3048 34.5527 42.7899C34.5527 41.0229 33.5462 39.4908 32.0752 38.7361V22.0965L38.5048 28.5262C38.246 29.0981 38.1019 29.733 38.1019 30.4016C38.1019 32.9165 40.1407 34.9552 42.6555 34.9552C45.1704 34.9552 47.2091 32.9165 47.2091 30.4016C47.2091 27.8868 45.1704 25.848 42.6555 25.848C42.1667 25.848 41.6962 25.925 41.2547 26.0675L34.3494 19.1621C34.4816 18.7357 34.5527 18.2823 34.5527 17.8123C34.5527 15.2974 32.514 13.2587 29.9992 13.2587C29.5292 13.2587 29.076 13.3299 28.6494 13.4621L21.7476 6.56042Z" fill="white"/>
</svg>