<svg viewBox="0 0 60 42" fill="none" xmlns="http://www.w3.org/2000/svg">
<path d="M18.3662 33.5869H16.7418C16.6844 30.8451 16.5262 28.2675 16.2676 25.8521H16.2531L13.78 33.5869H12.5433L10.0849 25.8521H10.0708C9.88841 28.1711 9.77353 30.7494 9.72582 33.5869H8.24521C8.34063 30.1364 8.58044 26.9014 8.9637 23.8818H10.977L13.3201 31.0131H13.3346L15.6922 23.8818H17.6185C18.0404 27.4187 18.2896 30.654 18.3662 33.5869ZM25.4108 26.4265C24.7494 30.0155 23.8768 32.6233 22.7939 34.2511C21.9502 35.5042 21.0258 36.1313 20.0191 36.1313C19.7508 36.1313 19.4196 36.0503 19.0273 35.8896V35.0242C19.219 35.0519 19.4441 35.0675 19.7027 35.0675C20.173 35.0675 20.5509 34.9382 20.839 34.679C21.1837 34.3632 21.356 34.0082 21.356 33.6155C21.356 33.3462 21.2217 32.7956 20.9536 31.9619L19.171 26.4262H20.7668L22.0462 30.5664C22.3338 31.5065 22.4537 32.1628 22.4056 32.5367C23.1053 30.6681 23.594 28.6306 23.8724 26.4259H25.4108V26.4265Z" fill="#5D87A1"/>
<path d="M47.033 33.587H42.4188V23.8819H43.971V32.3923H47.033V33.587ZM41.211 33.8215L39.4268 32.941C39.585 32.811 39.7363 32.6704 39.8726 32.5075C40.6309 31.6167 41.0091 30.2993 41.0091 28.5544C41.0091 25.3437 39.7492 23.7375 37.2284 23.7375C35.9923 23.7375 35.028 24.1449 34.3384 24.9601C33.5807 25.8515 33.2024 27.1642 33.2024 28.8997C33.2024 30.6057 33.5377 31.8571 34.2085 32.651C34.8221 33.3701 35.7471 33.7301 36.9842 33.7301C37.4456 33.7301 37.869 33.6736 38.2548 33.5597L40.5776 34.9119L41.211 33.8215ZM35.4314 31.645C35.0384 31.0128 34.8419 29.9977 34.8419 28.598C34.8419 26.1544 35.5842 24.9312 37.0705 24.9312C37.8474 24.9312 38.4167 25.2237 38.7809 25.8076C39.1732 26.4407 39.3707 27.4467 39.3707 28.8269C39.3707 31.2906 38.6277 32.5226 37.1424 32.5226C36.3652 32.5229 35.7958 32.2313 35.4314 31.645ZM32.526 30.897C32.526 31.72 32.2241 32.3951 31.6208 32.924C31.0168 33.4508 30.207 33.7147 29.1922 33.7147C28.243 33.7147 27.3227 33.4115 26.4319 32.8082L26.849 31.9748C27.6155 32.3587 28.3096 32.5496 28.9326 32.5496C29.5174 32.5496 29.9744 32.4199 30.3059 32.1629C30.637 31.9049 30.8345 31.5429 30.8345 31.0853C30.8345 30.5087 30.4324 30.0159 29.6947 29.6031C29.0145 29.2296 27.6542 28.4486 27.6542 28.4486C26.9168 27.9113 26.5477 27.3343 26.5477 26.3839C26.5477 25.5973 26.823 24.9623 27.3739 24.4792C27.9254 23.9942 28.6369 23.7526 29.5092 23.7526C30.4101 23.7526 31.229 23.9939 31.9667 24.4717L31.5925 25.3054C30.9616 25.0373 30.3388 24.9033 29.7246 24.9033C29.227 24.9033 28.8429 25.0229 28.5757 25.263C28.3064 25.5022 28.1404 25.8082 28.1404 26.1836C28.1404 26.7574 28.5509 27.2565 29.3087 27.6774C29.998 28.0516 31.3922 28.846 31.3922 28.846C32.1484 29.3824 32.526 29.954 32.526 30.897Z" fill="#F8981D"/>
<path d="M48.9816 20.6313C48.0431 20.6074 47.3164 20.7019 46.7065 20.9599C46.5304 21.0302 46.2505 21.0302 46.226 21.2528C46.3211 21.3469 46.3321 21.4989 46.4146 21.6288C46.5552 21.8633 46.8004 22.1787 47.0242 22.3432C47.27 22.5315 47.5167 22.718 47.7753 22.8822C48.2314 23.1643 48.7484 23.3285 49.1928 23.6098C49.4518 23.7733 49.7092 23.9848 49.9685 24.1609C50.0959 24.2548 50.1775 24.407 50.3429 24.4657V24.4299C50.2601 24.3245 50.2365 24.1719 50.1552 24.0545L49.803 23.7149C49.4628 23.2579 49.04 22.8589 48.5839 22.5312C48.2085 22.2726 47.3874 21.921 47.2351 21.4885L47.2113 21.4646C47.4693 21.4405 47.7753 21.3469 48.0205 21.2751C48.4194 21.1699 48.7832 21.1938 49.1925 21.0886C49.3809 21.0415 49.5676 20.9825 49.7566 20.9244V20.8187C49.5444 20.6074 49.3931 20.3268 49.1699 20.1272C48.5729 19.6114 47.915 19.107 47.2351 18.6849C46.871 18.4497 46.4027 18.2985 46.015 18.0985C45.8754 18.0279 45.6399 17.993 45.5577 17.8756C45.3474 17.6176 45.2291 17.278 45.0765 16.9726C44.7375 16.3282 44.4082 15.6131 44.1157 14.9317C43.9041 14.4747 43.7754 14.0183 43.5174 13.5955C42.309 11.6023 40.9966 10.3951 38.9796 9.21014C38.5461 8.96343 38.0304 8.85827 37.4795 8.72895L36.5997 8.6825C36.4119 8.60026 36.2239 8.37708 36.0601 8.27162C35.3909 7.84975 33.6679 6.93539 33.1758 8.14261C32.8587 8.90567 33.6447 9.65586 33.9147 10.0429C34.114 10.3116 34.3723 10.6173 34.5117 10.9224C34.5942 11.1217 34.6175 11.3333 34.7 11.5439C34.8877 12.0599 35.0632 12.634 35.3099 13.1155C35.4386 13.361 35.5789 13.619 35.7434 13.8412C35.8375 13.9712 36.0014 14.0286 36.0372 14.2405C35.8736 14.474 35.8608 14.8265 35.7669 15.1197C35.345 16.4446 35.5098 18.086 36.1078 19.0596C36.2949 19.3528 36.7412 19.9982 37.3382 19.7508C37.8668 19.5399 37.7497 18.8716 37.9017 18.2856C37.9365 18.144 37.9136 18.0511 37.9839 17.9582V17.9811C38.1474 18.3091 38.3125 18.6252 38.4641 18.9542C38.8279 19.5283 39.4614 20.1265 39.989 20.5242C40.2699 20.7364 40.4925 21.0993 40.8444 21.2289V21.1938H40.8211C40.7499 21.0886 40.6457 21.0415 40.5521 20.9599C40.3406 20.7487 40.1064 20.4906 39.9422 20.2565C39.4507 19.5995 39.0156 18.8722 38.6296 18.1217C38.4406 17.7576 38.2777 17.3596 38.1255 16.9961C38.0545 16.8558 38.0545 16.6443 37.9368 16.5736C37.7604 16.8313 37.5033 17.0545 37.3746 17.3703C37.1515 17.8753 37.1282 18.4965 37.0454 19.1425L36.9992 19.1651C36.6257 19.0712 36.4958 18.6848 36.3539 18.3568C36.0026 17.5238 35.9436 16.1866 36.2484 15.2255C36.33 14.9797 36.6831 14.2057 36.5422 13.9715C36.4716 13.7471 36.2368 13.6193 36.1081 13.4426C35.9568 13.2204 35.7911 12.9391 35.6856 12.6924C35.4044 12.0361 35.2628 11.3088 34.9599 10.6528C34.8183 10.347 34.5726 10.0306 34.3736 9.74909C34.1501 9.43269 33.9043 9.20983 33.7276 8.83473C33.6692 8.70572 33.5873 8.49479 33.6811 8.35448C33.704 8.26032 33.7517 8.22516 33.8453 8.20162C33.9972 8.07324 34.4313 8.23646 34.5836 8.30708C35.0183 8.48286 35.3818 8.64703 35.7446 8.89311C35.9088 9.01082 36.0849 9.23368 36.2955 9.29238H36.5422C36.9167 9.37399 37.3389 9.31498 37.6914 9.42107C38.3125 9.62071 38.8753 9.91356 39.3801 10.2296C40.9159 11.2036 42.1825 12.5876 43.0375 14.2405C43.1778 14.5098 43.2374 14.7565 43.3655 15.0375C43.6125 15.6125 43.918 16.1989 44.1631 16.7617C44.4095 17.3125 44.6443 17.875 44.9962 18.3327C45.1716 18.5788 45.8766 18.7078 46.1927 18.8368C46.4265 18.9419 46.7907 19.0355 47.0016 19.1645C47.4005 19.4102 47.7979 19.6924 48.173 19.9627C48.3598 20.1033 48.9467 20.3965 48.9816 20.6313ZM37.0206 10.4412C36.8587 10.4395 36.6973 10.4594 36.5406 10.5002V10.5238H36.5632C36.6577 10.7112 36.8219 10.8411 36.939 11.0046C37.0334 11.1927 37.1154 11.3791 37.208 11.5668L37.2306 11.5436C37.396 11.4265 37.4782 11.2388 37.4782 10.9572C37.407 10.8744 37.396 10.7934 37.3367 10.7112C37.2676 10.5938 37.1154 10.5354 37.0206 10.4412Z" fill="#5D87A1"/>
<path d="M50.0984 33.5854H50.3414V32.3964H49.9769L49.6797 33.2078L49.3567 32.3964H49.0058V33.5854H49.2352V32.6808H49.2481L49.5865 33.5854H49.7613L50.0984 32.6808V33.5854ZM48.1413 33.5854H48.3984V32.5979H48.7349V32.3961H47.7907V32.5979H48.1407L48.1413 33.5854Z" fill="#F8981D"/>
</svg>