<svg viewBox="0 0 60 60" fill="none" xmlns="http://www.w3.org/2000/svg">
<circle cx="50%" cy="50%" r="50%" fill="white"/>
<path d="M18.1181 23.542H26.6055V24.2129H18.8961V29.2624H26.1458V29.9333H18.8961V35.4772H26.6939V36.1481H18.1181V23.542ZM27.3658 23.542H28.2676L32.2638 29.0858L36.3484 23.542L41.904 16.5L32.7766 29.6685L37.48 36.1481H36.5429L32.2638 30.2511L27.967 36.1481H27.0476L31.7864 29.6685L27.3658 23.542ZM37.816 24.2129V23.542H47.4881V24.2129H43.0322V36.1481H42.2542V24.2129H37.816ZM7.5 23.542H8.47252L21.8829 43.5L16.3411 36.1481L8.31338 24.4954L8.27801 36.1481H7.5V23.542ZM47.4097 35.2747C47.2507 35.2747 47.1315 35.1522 47.1315 34.9939C47.1315 34.8356 47.2507 34.7131 47.4097 34.7131C47.5705 34.7131 47.6879 34.8356 47.6879 34.9939C47.6879 35.1522 47.5705 35.2747 47.4097 35.2747ZM48.1742 34.536H48.5905C48.5962 34.7603 48.7608 34.911 49.003 34.911C49.2736 34.911 49.4269 34.749 49.4269 34.4456V32.5234H49.8508V34.4474C49.8508 34.9939 49.5329 35.3086 49.0068 35.3086C48.5129 35.3086 48.1742 35.0034 48.1742 34.536ZM50.4052 34.5115H50.8253C50.8613 34.7697 51.1148 34.9336 51.48 34.9336C51.8207 34.9336 52.0704 34.7584 52.0704 34.5172C52.0704 34.3099 51.9115 34.1855 51.5501 34.1007L51.1981 34.0159C50.7042 33.901 50.479 33.6635 50.479 33.264C50.479 32.7797 50.8764 32.4575 51.4725 32.4575C52.0269 32.4575 52.4319 32.7797 52.4565 33.2376H52.044C52.0042 32.987 51.7847 32.8306 51.4668 32.8306C51.1319 32.8306 50.9086 32.9908 50.9086 33.2357C50.9086 33.4298 51.0524 33.541 51.4081 33.6239L51.709 33.6974C52.2691 33.8275 52.5 34.0536 52.5 34.4625C52.5 34.9826 52.095 35.3086 51.4479 35.3086C50.8423 35.3086 50.4355 34.9977 50.4052 34.5115Z" fill="black"/>
</svg>