<svg viewBox="0 0 60 32" fill="none" xmlns="http://www.w3.org/2000/svg">
<path d="M30 31.5643C46.5685 31.5643 60 24.4984 60 15.7821C60 7.06591 46.5685 0 30 0C13.4315 0 0 7.06591 0 15.7821C0 24.4984 13.4315 31.5643 30 31.5643Z" fill="url(#paint0_radial_35_268)"/>
<path d="M30 30.3921C45.9212 30.3921 58.8278 23.851 58.8278 15.7821C58.8278 7.71324 45.9212 1.17212 30 1.17212C14.0788 1.17212 1.17212 7.71324 1.17212 15.7821C1.17212 23.851 14.0788 30.3921 30 30.3921Z" fill="#6280B6"/>
<path d="M35.8393 20.4964L37.2685 13.1378C37.4722 12.5081 37.5057 11.8357 37.3657 11.1888C37.2257 10.5419 36.9172 9.9435 36.4714 9.45427C35.2271 8.57072 33.7035 8.17078 32.1857 8.32927H29.715L30.4243 4.68641C30.4372 4.61858 30.435 4.54874 30.4178 4.48186C30.4006 4.41498 30.3689 4.35271 30.3249 4.2995C30.2809 4.24629 30.2257 4.20344 30.1633 4.17401C30.1008 4.14459 30.0326 4.12931 29.9635 4.12927H26.535C26.4261 4.12924 26.3206 4.16706 26.2366 4.23625C26.1525 4.30545 26.0951 4.40171 26.0743 4.50856L24.555 12.3214C24.4381 11.4861 24.0832 10.702 23.5328 10.0628C22.92 9.44915 22.1808 8.97649 21.3666 8.67783C20.5524 8.37916 19.6828 8.26168 18.8185 8.33356H12.2143C12.1054 8.33353 11.9999 8.37135 11.9159 8.44054C11.8318 8.50973 11.7744 8.606 11.7535 8.71284L8.68069 24.5271C8.66776 24.595 8.66996 24.6648 8.68713 24.7317C8.70431 24.7986 8.73602 24.8608 8.78003 24.914C8.82403 24.9673 8.87923 25.0101 8.9417 25.0395C9.00417 25.069 9.07236 25.0842 9.1414 25.0843H12.5764C12.6853 25.0843 12.7908 25.0465 12.8748 24.9773C12.9589 24.9081 13.0162 24.8118 13.0371 24.705L13.7807 20.88H16.3521C17.4875 20.9103 18.6207 20.7658 19.7121 20.4514C20.6323 20.147 21.4739 19.6428 22.1764 18.975C22.7521 18.4505 23.2436 17.8405 23.6335 17.1664L23.0185 20.3271C23.0056 20.395 23.0078 20.4648 23.025 20.5317C23.0422 20.5986 23.0739 20.6608 23.1179 20.714C23.1619 20.7673 23.2171 20.8101 23.2796 20.8395C23.342 20.869 23.4102 20.8842 23.4793 20.8843H26.9078C27.0167 20.8843 27.1222 20.8465 27.2062 20.7773C27.2903 20.7081 27.3477 20.6118 27.3685 20.505L29.055 11.8243H31.3993C32.3978 11.8243 32.685 12.0236 32.7707 12.1093C32.8564 12.195 32.985 12.4628 32.8243 13.3286L31.4635 20.325C31.4506 20.3928 31.4528 20.4627 31.47 20.5295C31.4872 20.5964 31.5189 20.6587 31.5629 20.7119C31.6069 20.7651 31.6621 20.808 31.7246 20.8374C31.787 20.8668 31.8552 20.8821 31.9243 20.8821H35.3957C35.5025 20.878 35.6047 20.8375 35.6853 20.7673C35.766 20.6972 35.8203 20.6016 35.8393 20.4964ZM19.9928 14.4236C19.888 15.3232 19.461 16.1544 18.7907 16.7636C17.9487 17.2873 16.9614 17.5283 15.9728 17.4514H14.4471L15.5507 11.7707H17.5243C18.975 11.7707 19.5578 12.0814 19.7935 12.3407C19.9734 12.6536 20.0842 13.0013 20.1185 13.3606C20.1529 13.7198 20.11 14.0822 19.9928 14.4236Z" fill="white"/>
<path d="M50.4557 10.0651C49.843 9.45136 49.1037 8.9787 48.2895 8.68004C47.4753 8.38137 46.6057 8.26388 45.7415 8.33577H39.1179C39.009 8.33573 38.9035 8.37355 38.8195 8.44275C38.7354 8.51194 38.6781 8.60821 38.6572 8.71505L35.5843 24.5293C35.5714 24.5972 35.5736 24.667 35.5908 24.7339C35.6079 24.8008 35.6396 24.863 35.6837 24.9163C35.7277 24.9695 35.7829 25.0123 35.8453 25.0417C35.9078 25.0712 35.976 25.0864 36.045 25.0865H39.4907C39.5996 25.0865 39.7051 25.0487 39.7892 24.9795C39.8732 24.9103 39.9306 24.814 39.9515 24.7072L40.695 20.8822H43.2665C44.4018 20.9125 45.5351 20.768 46.6265 20.4536C47.5467 20.1492 48.3882 19.645 49.0907 18.9772C50.2939 17.8929 51.1046 16.4411 51.3965 14.8479C51.627 14.0329 51.662 13.175 51.4985 12.3439C51.3351 11.5128 50.9778 10.732 50.4557 10.0651ZM46.8836 14.4236C46.7788 15.3233 46.3518 16.1545 45.6815 16.7636C44.8374 17.2879 43.8477 17.5282 42.8572 17.4493H41.3357L42.4393 11.7686H44.4129C45.8636 11.7686 46.4465 12.0793 46.6822 12.3386C46.8626 12.6516 46.974 12.9997 47.0087 13.3593C47.0435 13.7189 47.0008 14.0819 46.8836 14.4236Z" fill="white"/>
<path d="M17.5242 11.2992C17.9866 11.241 18.4559 11.2751 18.905 11.3994C19.3541 11.5237 19.7741 11.7359 20.1407 12.0235C20.3772 12.3877 20.5281 12.8008 20.5819 13.2318C20.6357 13.6627 20.5911 14.1002 20.4514 14.5114C20.3289 15.5239 19.8394 16.4563 19.0757 17.1321C18.1545 17.7254 17.0657 18.0036 15.9728 17.925H13.8771L15.1628 11.3057L17.5242 11.2992ZM9.13068 24.6192H12.5764L13.3928 20.415H16.3435C17.4296 20.4446 18.5138 20.3065 19.5578 20.0057C20.4146 19.7228 21.1978 19.2528 21.8507 18.63C22.9807 17.6134 23.7418 16.2509 24.015 14.7557C24.2312 14.0121 24.2692 13.2281 24.1259 12.4671C23.9825 11.7061 23.6619 10.9896 23.19 10.3757C22.6209 9.81282 21.9359 9.38087 21.1828 9.10996C20.4296 8.83905 19.6264 8.73569 18.8292 8.8071H12.2142L9.13068 24.6192Z" fill="#000004"/>
<path d="M26.5436 4.60065H29.9721L29.1428 8.80493H32.1878C33.5864 8.65856 34.9914 9.014 36.1521 9.80779C36.5363 10.2445 36.7989 10.7744 36.9136 11.3446C37.0283 11.9148 36.9911 12.5051 36.8057 13.0564L35.3764 20.4149H31.9071L33.2678 13.4185C33.3626 13.1515 33.3964 12.8666 33.3667 12.5848C33.3371 12.303 33.2447 12.0314 33.0964 11.7899C32.6002 11.4345 31.9873 11.2812 31.3821 11.3614H28.65L26.8886 20.4214H23.46L26.5436 4.60065Z" fill="#000004"/>
<path d="M44.415 11.2992C44.8773 11.241 45.3466 11.2751 45.7957 11.3994C46.2448 11.5237 46.6648 11.7359 47.0314 12.0235C47.268 12.3877 47.4188 12.8008 47.4727 13.2318C47.5265 13.6627 47.4819 14.1002 47.3421 14.5114C47.2196 15.5239 46.7302 16.4563 45.9664 17.1321C45.0435 17.7268 43.9521 18.0051 42.8571 17.925H40.7614L42.0471 11.3057L44.415 11.2992ZM36.0214 24.6192H39.4671L40.2836 20.415H43.2343C44.3204 20.4446 45.4046 20.3065 46.4486 20.0057C47.3054 19.7228 48.0886 19.2528 48.7414 18.63C49.8715 17.6134 50.6326 16.2509 50.9057 14.7557C51.122 14.0121 51.1599 13.2281 51.0166 12.4671C50.8733 11.7061 50.5526 10.9896 50.0807 10.3757C49.5117 9.81282 48.8267 9.38087 48.0735 9.10996C47.3204 8.83905 46.5172 8.73569 45.72 8.8071H39.0943L36.0214 24.6192Z" fill="#000004"/>
<defs>
<radialGradient id="paint0_radial_35_268" cx="0" cy="0" r="1" gradientUnits="userSpaceOnUse" gradientTransform="translate(18.0129 5.55) scale(39.3943 39.3943)">
<stop stopColor="white"/>
<stop offset="0.5" stopColor="#4C6B96"/>
<stop offset="1" stopColor="#231F20"/>
</radialGradient>
</defs>
</svg>