<svg viewBox="0 0 53 62" fill="none" xmlns="http://www.w3.org/2000/svg">
<path d="M30.331 0C24.4157 0 19.0638 0.746267 15.0778 2.00604C13.0849 2.63592 11.4352 3.37935 10.1628 4.3301C9.02804 5.17806 8.0257 6.32767 7.82175 7.91789H7.78182V8.38365C7.78182 8.86432 8.05536 9.58935 9.06196 10.511C10.0685 11.4327 11.6993 12.3896 13.7717 13.1922C17.9166 14.7975 23.816 15.8358 30.331 15.8358C36.8459 15.8358 42.7453 14.7975 46.8902 13.1922C48.9626 12.3896 50.5934 11.4327 51.5999 10.511C52.6065 9.58935 52.8801 8.86432 52.8801 8.38365H52.8705C52.8195 6.5503 51.7411 5.25821 50.4991 4.3301C49.2267 3.37935 47.577 2.63592 45.5841 2.00604C41.5981 0.746267 36.2462 0 30.331 0ZM7.78182 13.9429V21.8075C7.83481 22.2837 8.13208 22.9437 9.03876 23.7739C10.0454 24.6956 11.6761 25.6525 13.7485 26.4551C17.8934 28.0603 23.7928 29.0986 30.3078 29.0986C36.8227 29.0986 42.7222 28.0603 46.867 26.4551C48.9394 25.6525 50.5702 24.6956 51.5768 23.7739C52.5833 22.8522 52.8569 22.1271 52.8569 21.6465H52.8801V13.9429C51.5221 15.0508 49.808 15.966 47.787 16.7487C43.2266 18.5149 37.0997 19.5618 30.331 19.5618C23.5622 19.5618 17.4353 18.5149 12.8749 16.7487C10.8539 15.966 9.13982 15.0508 7.78182 13.9429ZM52.8801 27.1814C52.1473 27.7827 51.3153 28.3302 50.3809 28.8275C49.5781 29.2548 48.704 29.6475 47.7638 30.0116C43.2034 31.7778 37.0766 32.8247 30.3078 32.8247C23.539 32.8247 17.4121 31.7778 12.8517 30.0116C10.8426 29.2335 9.13603 28.3247 7.78182 27.2256V35.3976C7.78182 35.8783 8.05536 36.6033 9.06196 37.525C10.0686 38.4467 11.6993 39.4036 13.7717 40.2062C17.9166 41.8115 23.816 42.8498 30.331 42.8498C36.8459 42.8498 42.7453 41.8115 46.8902 40.2062C48.9626 39.4036 50.5933 38.4467 51.5999 37.525C52.6065 36.6033 52.8801 35.8783 52.8801 35.3976V27.1814ZM7.78182 40.9569V47.3764V47.9731H7.82175C8.0257 49.5633 9.02804 50.7129 10.1628 51.5609C11.4352 52.5117 13.0849 53.2551 15.0778 53.885C19.0638 55.1447 24.4157 55.891 30.331 55.891C36.2462 55.891 41.5981 55.1447 45.5841 53.885C47.577 53.2551 49.2267 52.5117 50.4991 51.5609C51.6339 50.7129 52.6362 49.5633 52.8402 47.9731H52.8801V47.3764V40.9569C51.5221 42.0648 49.808 42.98 47.787 43.7627C43.2266 45.5289 37.0998 46.5758 30.331 46.5758C23.5621 46.5758 17.4353 45.5289 12.8749 43.7627C10.8539 42.98 9.13982 42.0648 7.78182 40.9569Z" fill="#890C4C"/>
<path d="M23.5977 49.4918L25.444 52.7407C25.2247 53.1696 24.9795 53.5908 24.7081 54.0023C24.4367 54.4139 24.1462 54.8051 23.8385 55.1757L20.2067 54.7707C19.2351 55.5678 18.114 56.1892 16.8916 56.5863L15.1937 59.9198C14.7149 59.9727 14.2282 60 13.7353 60C13.2424 60 12.7558 59.9727 12.277 59.9198L10.5747 56.5849C9.35169 56.187 8.23003 55.5645 7.25843 54.7662L3.60555 55.1751C3.29779 54.8045 3.00726 54.4133 2.7359 54.0017C2.46457 53.5902 2.21939 53.169 2 52.7401L3.85682 49.4729C3.64049 48.6457 3.52701 47.7703 3.52701 46.8753C3.52701 45.9634 3.64656 45.0795 3.87085 44.2383L2.00057 40.9483C2.21995 40.5195 2.46512 40.0983 2.73646 39.6867C3.00781 39.2752 3.29834 38.884 3.60611 38.5134L7.3321 38.9319C8.29218 38.1553 9.38373 37.5516 10.585 37.1623M10.5794 37.1624L12.2767 33.8301C12.7555 33.7772 13.2421 33.75 13.735 33.75C14.2279 33.75 14.7144 33.7772 15.1934 33.8301L16.8906 37.1624C18.0928 37.5521 19.1876 38.1507 20.1482 38.9282L23.8376 38.5138C24.1453 38.8844 24.4358 39.2757 24.7072 39.6872C24.9785 40.0987 25.2238 40.5199 25.4431 40.9488L23.5922 44.2058M23.5925 44.2109C23.8214 45.0602 23.9437 45.9535 23.9437 46.8753C23.9437 47.7814 23.8257 48.6599 23.604 49.4962M18.1103 46.8753C18.1103 49.2915 16.1516 51.2503 13.7353 51.2503C11.319 51.2503 9.36032 49.2915 9.36032 46.8753C9.36032 44.459 11.319 42.5002 13.7353 42.5002C16.1516 42.5002 18.1103 44.459 18.1103 46.8753Z" stroke="#D3DEE6" stroke-width="4" stroke-linecap="round" stroke-linejoin="round"/>
</svg>