<svg viewBox="0 0 59 60" fill="none" xmlns="http://www.w3.org/2000/svg">
<path d="M58.043 35.9412C57.6933 34.882 56.777 34.1441 55.5919 33.9669C55.0332 33.8836 54.3932 33.9191 53.6361 34.0753C52.3163 34.3476 51.3371 34.4512 50.6225 34.4714C53.3197 29.9172 55.5131 24.7237 56.7758 19.835C58.8174 11.9303 57.7264 8.32919 56.4515 6.70021C53.0774 2.38894 48.1546 0.0727107 42.2154 0.00170955C39.0474 -0.0369571 36.266 0.588581 34.8152 1.0383C33.4643 0.800102 32.0117 0.666992 30.4875 0.642337C27.6309 0.596799 25.1067 1.21951 22.9498 2.49942C21.7555 2.09577 19.8392 1.52655 17.6261 1.16319C12.4208 0.308618 8.22564 0.974574 5.15709 3.14233C1.44132 5.76709 -0.281304 10.3273 0.0373253 16.6966C0.138371 18.7188 1.26967 24.8714 3.05077 30.7066C4.07442 34.0603 5.16598 36.8455 6.29513 38.9853C7.89636 42.0195 9.60969 43.8063 11.5332 44.4479C12.6114 44.8072 14.5702 45.0586 16.6306 43.343C16.8917 43.6591 17.24 43.9734 17.7025 44.2652C18.2896 44.6356 19.0077 44.9382 19.7247 45.1175C22.3092 45.7637 24.73 45.602 26.7952 44.6965C26.8079 45.0637 26.8177 45.4147 26.8261 45.7177C26.8398 46.2093 26.8533 46.6913 26.8713 47.1419C26.9937 50.1897 27.201 52.5594 27.8154 54.2174C27.849 54.3087 27.8944 54.4476 27.9424 54.5949C28.2488 55.5334 28.7614 57.1043 30.0652 58.3348C31.4155 59.6092 33.0487 60.0001 34.5444 60C35.2946 60 36.0104 59.9016 36.6381 59.7671C38.8761 59.2876 41.4175 58.5568 43.256 55.9391C44.9941 53.4643 45.8392 49.7369 45.9921 43.8636C46.0119 43.6976 46.0302 43.539 46.0478 43.3879C46.0597 43.2859 46.0718 43.1816 46.0841 43.0776L46.4937 43.1136L46.5992 43.1207C48.8785 43.2246 51.6654 42.7412 53.377 41.9462C54.7295 41.3185 59.0634 39.0305 58.043 35.9412Z" fill="black"/>
<path d="M54.1457 36.5421C47.3687 37.9401 46.9028 35.6455 46.9028 35.6455C54.0583 25.028 57.0495 11.5505 54.4682 8.25201C47.426 -0.745745 35.2356 3.50961 35.0322 3.62009L34.9667 3.63181C33.6278 3.35387 32.1293 3.18829 30.4452 3.1608C27.3787 3.11055 25.0526 3.96472 23.2876 5.30323C23.2876 5.30323 1.54115 -3.65545 2.55254 16.5705C2.7677 20.8734 8.71981 49.1282 15.8193 40.5939C18.4141 37.4732 20.9212 34.8346 20.9212 34.8346C22.1665 35.6618 23.6573 36.0838 25.2201 35.9322L25.3415 35.8292C25.3038 36.2166 25.321 36.5956 25.3901 37.0443C23.5612 39.0877 24.0986 39.4465 20.4426 40.199C16.7431 40.9615 18.9164 42.3188 20.3353 42.6736C22.0555 43.1038 26.0352 43.7131 28.7242 39.9488L28.617 40.3784C29.3336 40.9523 29.8368 44.1118 29.7525 46.9758C29.6681 49.84 29.6118 51.8063 30.1764 53.3422C30.7411 54.8781 31.3038 58.3338 36.1101 57.304C40.1262 56.4434 42.2073 54.2131 42.4968 50.4929C42.7023 47.848 43.1672 48.239 43.1966 45.8744L43.5695 44.755C43.9996 41.1697 43.6378 40.0131 46.1121 40.5511L46.7134 40.6039C48.5345 40.6867 50.918 40.311 52.3168 39.6608C55.3291 38.2629 57.1155 35.9289 54.1455 36.5421H54.1457Z" fill="#336791"/>
<path d="M24.5605 18.4947C23.9499 18.4097 23.3967 18.4884 23.1169 18.7002C22.9594 18.8194 22.9108 18.9575 22.8977 19.0526C22.8625 19.3044 23.039 19.5828 23.1473 19.7264C23.454 20.1329 23.9021 20.4123 24.3456 20.4739C24.4099 20.4828 24.4737 20.4871 24.5373 20.4871C25.277 20.4871 25.9493 19.9112 26.0085 19.4862C26.0826 18.9539 25.3098 18.599 24.5605 18.4947Z" fill="white"/>
<path d="M44.7925 18.5116C44.7343 18.0943 43.9915 17.9754 43.2869 18.0733C42.5833 18.1714 41.901 18.4889 41.9579 18.9071C42.0037 19.2324 42.5908 19.7876 43.2859 19.7874C43.3446 19.7874 43.4038 19.7835 43.4635 19.7752C43.9275 19.7109 44.268 19.4163 44.4296 19.2464C44.6761 18.9877 44.8185 18.6991 44.7925 18.5116Z" fill="white"/>
<path d="M56.4009 36.3832C56.1425 35.6018 55.3109 35.3503 53.929 35.6358C49.826 36.4825 48.3567 35.8959 47.8741 35.5407C51.0633 30.6821 53.6869 24.8095 55.1022 19.33C55.7727 16.7345 56.1431 14.3241 56.1733 12.3595C56.2067 10.2028 55.8395 8.61828 55.082 7.65027C52.0278 3.74776 47.5456 1.65451 42.1197 1.59698C38.3897 1.55508 35.2381 2.50976 34.6272 2.77813C33.3405 2.45816 31.9379 2.26172 30.411 2.23666C27.6107 2.1914 25.1903 2.8618 23.1863 4.2282C22.3158 3.90432 20.0661 3.13206 17.3151 2.68894C12.5587 1.92302 8.77922 2.50329 6.08198 4.41412C2.86362 6.69424 1.37785 10.77 1.66576 16.528C1.76263 18.4654 2.86632 24.4247 4.60834 30.132C6.90126 37.6438 9.39358 41.8963 12.0162 42.7709C12.3231 42.8733 12.6771 42.945 13.0673 42.945C14.024 42.945 15.1968 42.5137 16.4172 41.0467C18.4441 38.6081 20.3367 36.5647 21.0343 35.8222C22.0652 36.3757 23.1976 36.6846 24.3561 36.7156C24.3581 36.7459 24.3612 36.7762 24.3639 36.8064C24.1315 37.0821 23.9409 37.3236 23.7784 37.5299C22.9758 38.5487 22.8088 38.7608 20.2252 39.2928C19.4904 39.4444 17.5384 39.8467 17.5099 41.2148C17.4788 42.7096 19.817 43.3375 20.0835 43.404C21.0119 43.6364 21.9062 43.7511 22.7592 43.7511C24.8337 43.7509 26.6591 43.0692 28.1181 41.7501C28.0731 47.0792 28.2954 52.3305 28.9352 53.9305C29.4592 55.2402 30.7395 58.4413 34.7836 58.441C35.3768 58.441 36.0301 58.3721 36.7486 58.2181C40.969 57.3131 42.8017 55.4478 43.5108 51.3354C43.8902 49.1376 44.5413 43.8892 44.8474 41.074C45.4937 41.2756 46.3258 41.3679 47.2252 41.3677C49.1012 41.3677 51.2657 40.9692 52.6232 40.3391C54.148 39.631 56.9 37.893 56.4009 36.3832ZM46.3502 17.3598C46.3362 18.1909 46.2218 18.9454 46.1005 19.733C45.9701 20.58 45.8351 21.4558 45.8012 22.5189C45.7676 23.5535 45.8968 24.6291 46.0218 25.6692C46.2743 27.7701 46.5334 29.9332 45.5303 32.0675C45.3745 31.7907 45.224 31.4886 45.086 31.1541C44.9614 30.8519 44.6907 30.3665 44.3161 29.6946C42.8578 27.0795 39.443 20.9556 41.1911 18.4567C41.7116 17.7128 43.033 16.9482 46.3502 17.3598ZM42.3295 3.27999C47.191 3.38737 51.0365 5.20605 53.7593 8.68524C55.8476 11.3539 53.5481 23.4969 46.8911 33.9726C46.8253 33.889 46.7584 33.8047 46.6891 33.7182C46.6615 33.6836 46.6334 33.6484 46.6049 33.6129C48.3251 30.7719 47.9887 27.9611 47.6894 25.4689C47.5663 24.4462 47.4502 23.4802 47.4797 22.5729C47.5103 21.611 47.6375 20.7863 47.7604 19.9887C47.9117 19.0057 48.0654 17.9888 48.0229 16.7899C48.0546 16.6642 48.0674 16.5156 48.0508 16.3392C47.9425 15.1895 46.63 11.7489 43.9546 8.63445C42.4913 6.93123 40.3571 5.02498 37.4432 3.73928C38.6966 3.47952 40.4106 3.23728 42.3295 3.27999ZM15.1258 39.9729C13.7814 41.5894 12.8528 41.2796 12.5475 41.1779C10.558 40.5143 8.24974 36.3096 6.21456 29.6418C4.45354 23.8724 3.42436 18.0709 3.34298 16.444C3.08579 11.2991 4.33296 7.71332 7.05 5.78645C11.4717 2.65068 18.7416 4.52756 21.6628 5.47955C21.6207 5.52091 21.5771 5.55971 21.5355 5.60174C16.742 10.4429 16.8557 18.7141 16.8674 19.2196C16.867 19.4146 16.8833 19.6908 16.9058 20.0708C16.9883 21.4618 17.1417 24.051 16.7318 26.9832C16.3506 29.7079 17.1905 32.3748 19.0357 34.3001C19.2268 34.4994 19.4262 34.6865 19.6322 34.8626C18.8107 35.7422 17.0257 37.6873 15.1258 39.9729ZM20.2483 33.1381C18.761 31.5864 18.0856 29.428 18.395 27.2157C18.828 24.1182 18.6681 21.4206 18.5822 19.9713C18.5702 19.7686 18.5596 19.5909 18.5533 19.4506C19.2536 18.8298 22.4988 17.0909 24.813 17.6212C25.8692 17.8631 26.5125 18.5822 26.7801 19.8192C28.1648 26.2232 26.9635 28.8924 25.9982 31.0373C25.7992 31.4792 25.6112 31.8968 25.4506 32.329L25.3263 32.663C25.0113 33.5076 24.7182 34.2928 24.5366 35.0385C22.9557 35.0337 21.4177 34.3584 20.2483 33.1381ZM20.4909 41.7748C20.0293 41.6594 19.6141 41.4591 19.3705 41.293C19.574 41.1972 19.9361 41.067 20.5641 40.9377C23.6034 40.3119 24.0726 39.8704 25.0976 38.5689C25.3327 38.2706 25.5991 37.9323 25.968 37.5203L25.9684 37.5198C26.5179 36.9046 26.7692 37.0089 27.225 37.1979C27.5944 37.3509 27.9541 37.8138 28.1 38.3233C28.169 38.5639 28.2466 39.0208 27.9929 39.3761C25.8517 42.374 22.7317 42.3355 20.4909 41.7748ZM36.3965 56.576C32.6785 57.3727 31.362 55.4756 30.4945 53.3069C29.9346 51.9066 29.6595 45.5929 29.8547 38.6207C29.8573 38.5278 29.8441 38.4382 29.8185 38.354C29.7962 38.1914 29.762 38.0269 29.7146 37.8613C29.4241 36.8468 28.7167 35.9982 27.8679 35.6464C27.5307 35.5067 26.9116 35.2503 26.1678 35.4406C26.3265 34.787 26.6016 34.0491 26.8997 33.2499L27.0249 32.9136C27.1658 32.5346 27.3425 32.142 27.5295 31.7265C28.5396 29.4823 29.9232 26.4085 28.4216 19.4642C27.8591 16.8633 25.981 15.5932 23.1339 15.8882C21.4269 16.0648 19.8654 16.7535 19.0865 17.1484C18.9191 17.2333 18.7659 17.3152 18.6228 17.3951C18.8401 14.7744 19.6615 9.8769 22.7339 6.77831C24.6681 4.82747 27.2444 3.86403 30.3833 3.9159C36.5679 4.01722 40.5339 7.19112 42.7721 9.83595C44.7007 12.1151 45.7451 14.4109 46.1619 15.649C43.0275 15.3304 40.8957 15.9492 39.815 17.4941C37.464 20.8547 41.1012 27.3777 42.8493 30.5125C43.1698 31.0871 43.4465 31.5836 43.5336 31.7946C44.1028 33.1742 44.8397 34.0952 45.3778 34.7676C45.5427 34.9736 45.7028 35.1734 45.8245 35.3479C44.8752 35.6216 43.1699 36.2539 43.3253 39.4147C43.2 41.0009 42.3086 48.4265 41.8559 51.05C41.2583 54.516 39.9828 55.8071 36.3965 56.576ZM51.916 38.8159C50.9453 39.2665 49.3208 39.6046 47.7775 39.6771C46.0729 39.7569 45.2053 39.4861 45.0011 39.3196C44.9052 37.3499 45.6385 37.1441 46.4144 36.9262C46.5364 36.8918 46.6553 36.8586 46.7701 36.8184C46.8415 36.8765 46.9197 36.9341 47.0052 36.9906C48.3752 37.8949 50.8189 37.9924 54.2686 37.2804C54.2813 37.2777 54.2939 37.2753 54.3065 37.2727C53.8413 37.7077 53.045 38.2917 51.916 38.8159Z" fill="white"/>
</svg>