<svg viewBox="0 0 60 60" fill="none" xmlns="http://www.w3.org/2000/svg">
<path fill-rule="evenodd" clip-rule="evenodd" d="M23.6066 0C18.8985 0 15.082 3.69542 15.082 8.25397V13.9683H29.8361V15.5556H8.52459C3.81658 15.5556 0 19.251 0 23.8095V36.1905C0 40.749 3.81658 44.4444 8.52459 44.4444H13.4426V37.4604C13.4426 32.9019 17.2592 29.2063 21.9673 29.2063H37.7049C41.6886 29.2063 44.9179 26.0794 44.9179 22.2223V8.25397C44.9179 3.69542 41.1015 0 36.3934 0H23.6066ZM21.6394 10.1587C23.2691 10.1587 24.5901 8.87953 24.5901 7.30159C24.5901 5.72364 23.2691 4.44444 21.6394 4.44444C20.0096 4.44444 18.6885 5.72364 18.6885 7.30159C18.6885 8.87953 20.0096 10.1587 21.6394 10.1587Z" fill="url(#paint0_linear_35_326)"/>
<path fill-rule="evenodd" clip-rule="evenodd" d="M36.393 60C41.1011 60 44.9177 56.3046 44.9177 51.7461V46.0318H30.1635V44.4446H51.4751C56.1831 44.4446 59.9996 40.749 59.9996 36.1905V23.8095C59.9996 19.251 56.1831 15.5556 51.4751 15.5556H46.557V22.5396C46.557 27.0984 42.7403 30.7937 38.0325 30.7937H22.2947C18.3109 30.7937 15.0816 33.9206 15.0816 37.7777V51.7461C15.0816 56.3046 18.8983 60 23.6061 60H36.393ZM38.3603 49.8414C36.7305 49.8414 35.4094 51.1204 35.4094 52.6984C35.4094 54.2764 36.7305 55.5555 38.3603 55.5555C39.99 55.5555 41.3111 54.2764 41.3111 52.6984C41.3111 51.1204 39.99 49.8414 38.3603 49.8414Z" fill="url(#paint1_linear_35_326)"/>
<defs>
<linearGradient id="paint0_linear_35_326" x1="22.4591" y1="0" x2="22.4591" y2="44.4444" gradientUnits="userSpaceOnUse">
<stop stop-color="#327EBD"/>
<stop offset="1" stop-color="#1565A7"/>
</linearGradient>
<linearGradient id="paint1_linear_35_326" x1="37.5407" y1="15.5556" x2="37.5407" y2="60" gradientUnits="userSpaceOnUse">
<stop stop-color="#FFDA4B"/>
<stop offset="1" stop-color="#F9C600"/>
</linearGradient>
</defs>
</svg>
