<svg viewBox="0 0 60 54" fill="none" xmlns="http://www.w3.org/2000/svg">
<path d="M30.0013 32.1634C33.0928 32.1634 35.5989 29.6573 35.5989 26.5659C35.5989 23.4745 33.0928 20.9684 30.0013 20.9684C26.9099 20.9684 24.4038 23.4745 24.4038 26.5659C24.4038 29.6573 26.9099 32.1634 30.0013 32.1634Z" fill="#00D8FF"/>
<path fillRule="evenodd" clipRule="evenodd" d="M30.4126 14.7671C39.9564 14.8321 50.3689 15.5283 57.5165 21.9021C57.7265 22.0896 57.929 22.2846 58.1265 22.4859C59.8127 24.2046 60.694 26.9796 59.3327 29.2634C56.5402 33.9522 50.2952 35.9972 44.2489 37.2559C35.2064 39.1384 25.7513 39.1535 16.7125 37.4959C11.5112 36.5409 6.19246 34.8672 2.49619 31.3659C1.05744 30.0034 -0.17257 28.2109 0.0199309 26.2159C0.332432 22.9884 3.4287 20.9171 6.03496 19.5146C13.2737 15.6196 22.0938 14.7483 30.4126 14.7671ZM29.7201 16.2333C20.69 16.2946 10.9162 16.8708 3.9437 22.6446C3.69995 22.8459 3.46495 23.0571 3.2387 23.2784C3.09245 23.4209 2.9512 23.5696 2.81494 23.7221C1.59119 25.0971 1.16994 27.3059 2.32494 28.9571C3.48745 30.6184 5.25246 31.8172 7.06997 32.7947C13.8675 36.4497 21.9 37.0984 29.7313 37.1259C37.6601 37.1547 45.8364 36.4322 52.8402 32.8109C55.6302 31.3672 58.7702 29.2471 58.659 26.5171C58.5565 24.0121 56.114 22.4646 54.2852 21.3596C53.7902 21.0609 53.2814 20.7846 52.7652 20.5246C45.8127 17.0408 37.6651 16.2158 29.7201 16.2333Z" fill="#00D8FF"/>
<path fillRule="evenodd" clipRule="evenodd" d="M42.6439 0.000754911C46.1352 0.0895053 47.9439 4.28703 48.1827 7.38704C48.2302 8.00329 48.2477 8.62205 48.2402 9.2408C48.2327 9.9108 48.1964 10.5808 48.1377 11.2483C47.4014 19.5133 43.6277 27.3846 39.1839 34.6534C34.8376 41.7635 29.5376 48.8535 22.3276 52.1485C19.9438 53.2385 17.1088 53.911 14.9988 52.6948C12.1063 51.0285 11.79 47.131 11.8438 44.1747C11.8575 43.4485 11.905 42.7222 11.98 41.9985C13.0913 31.2984 18.515 21.1621 25.3026 12.4296C29.2626 7.33454 33.9739 2.28077 39.8426 0.450757C40.7664 0.162005 41.5001 -0.0129952 42.6439 0.000754911ZM42.4764 1.46576C38.3776 1.53076 34.6976 4.56828 31.4388 7.72454C22.8713 16.0208 16.5575 27.0546 14.0175 38.6259C13.8213 39.5222 13.6563 40.4247 13.535 41.3335C13.4413 42.0372 13.3725 42.7447 13.3363 43.4547C13.3075 44.0197 13.2975 44.586 13.315 45.1522C13.3275 45.5947 13.3563 46.0372 13.405 46.4772C13.4413 46.8135 13.49 47.1485 13.5513 47.481C13.5975 47.7272 13.6513 47.9722 13.7138 48.216C13.765 48.4135 13.8225 48.6097 13.8875 48.8047C14.3988 50.346 15.7163 51.8185 17.485 51.8673C21.6113 51.9798 25.4963 48.971 28.8551 45.701C34.7514 39.9622 39.1451 32.7509 42.5777 25.1709C45.3477 19.0508 47.8814 12.3983 46.4664 5.66203C46.4127 5.40703 46.3502 5.15453 46.2789 4.90453C46.2202 4.70078 46.1539 4.49953 46.0814 4.30078C45.5314 2.80202 44.2377 1.46201 42.4764 1.46576Z" fill="#00D8FF"/>
<path fillRule="evenodd" clipRule="evenodd" d="M17.6363 0.0557141C22.0913 0.141965 26.0926 3.16573 29.6451 6.552C36.1276 12.7308 40.9089 20.5908 44.5364 28.8634C47.3464 35.2721 49.9314 42.4659 47.6339 49.2285C46.9102 51.3597 45.0789 53.3097 42.6376 53.3597C38.1614 53.4497 34.0126 50.1947 30.4126 46.6909C21.3813 37.8984 14.6762 26.2908 12.3787 13.9808C12.2137 13.1008 12.0825 12.2133 11.9925 11.322C11.9187 10.5945 11.8725 9.86326 11.86 9.13201C11.85 8.54201 11.8625 7.952 11.9037 7.3645C11.9312 6.972 11.9712 6.582 12.025 6.19324C12.0762 5.82824 12.1412 5.46449 12.2225 5.10449C12.2762 4.86574 12.3362 4.62949 12.405 4.39449C13.0787 2.09072 14.8312 0.038214 17.6363 0.0557141ZM17.4675 1.52197C14.8588 1.57947 13.665 4.65574 13.425 6.8145C13.3762 7.257 13.3462 7.70325 13.3325 8.1495C13.315 8.71951 13.3225 9.29076 13.3512 9.86076C13.7612 18.1096 17.4488 26.0846 21.8988 33.3871C26.0888 40.2622 31.1488 47.1097 38.1089 50.6297C40.1189 51.646 42.5614 52.4447 44.2976 51.4847C46.4752 50.2797 46.7427 47.4085 46.8589 45.2684C46.8902 44.6859 46.8939 44.1009 46.8752 43.5172C46.8527 42.7847 46.7952 42.0534 46.7089 41.3259C45.9064 34.5296 42.8964 28.0984 39.4389 22.0208C35.1363 14.4608 29.8651 6.92575 22.405 2.98948C20.86 2.17447 19.1875 1.50822 17.4675 1.52197Z" fill="#00D8FF"/>
</svg>