<svg viewBox="0 0 55 60" fill="none" xmlns="http://www.w3.org/2000/svg">
<path d="M34.6104 28.01L22.5946 31.9336L12.141 36.5473L9.21649 37.3194C8.47168 38.0278 7.69071 38.7454 6.84605 39.472C5.91967 40.2711 5.05687 40.9978 4.39376 41.5245C3.65816 42.1058 2.56828 43.1956 2.01431 43.8858C1.18778 44.9211 0.533888 46.02 0.252319 46.8648C-0.247243 48.3907 -0.00190336 49.9346 0.960783 51.3606C2.19595 53.1769 4.65728 55.0297 7.52717 56.2921C8.9895 56.9371 11.4507 57.7635 13.3035 58.2266C16.3822 59.0077 22.3403 59.8524 25.6189 59.9796C26.2818 60.0068 27.1719 60.0068 27.2081 59.9796C27.2809 59.9341 27.7895 58.9624 28.3799 57.7545C30.3962 53.6402 31.8493 49.7802 32.6394 46.4834C33.1117 44.4854 33.484 41.8243 33.7291 38.6729C33.7928 37.7918 33.82 34.8401 33.7655 33.841C33.6837 32.2062 33.5383 30.8803 33.3115 29.5815C33.2751 29.3908 33.2659 29.2182 33.2842 29.2091C33.3204 29.1819 33.4294 29.1456 34.9098 28.7186L34.6102 28.0103V28.0101H34.6104V28.01ZM31.8676 29.6177C31.9765 29.6177 32.2671 32.4058 32.3397 34.1679C32.358 34.5402 32.3487 34.7855 32.3306 34.7855C32.2581 34.7855 30.7957 33.9227 29.7515 33.2689C28.8432 32.6966 27.1176 31.5522 26.8452 31.3343C26.7542 31.2707 26.7632 31.2617 27.5081 31.0073C28.7704 30.5804 31.7677 29.6177 31.8676 29.6177ZM25.7461 31.634C25.8279 31.634 26.0367 31.7519 26.5362 32.0608C28.4071 33.2324 30.9502 34.6493 32.0401 35.1216C32.376 35.2669 32.4123 35.2123 31.6404 35.7392C29.9875 36.8653 27.9257 37.9733 25.4008 39.0905C24.9559 39.2903 24.5835 39.4446 24.5745 39.4446C24.5564 39.4446 24.6107 39.2177 24.6833 38.9452C25.2918 36.6835 25.637 34.3949 25.6553 32.5603C25.6643 31.652 25.6643 31.652 25.7461 31.6249C25.7279 31.634 25.7369 31.634 25.7461 31.634ZM24.4837 32.1153C24.5381 32.1697 24.5018 34.2042 24.4291 34.7582C24.2657 36.0842 24.0114 37.3193 23.5937 38.709C23.4938 39.0448 23.4028 39.3266 23.3849 39.3447C23.3483 39.39 22.1041 38.173 21.6954 37.7008C20.9869 36.8833 20.4331 36.0659 20.0243 35.2668C19.8154 34.858 19.4885 34.0589 19.5157 34.0316C19.661 33.9317 24.4474 32.079 24.4837 32.1153ZM18.5439 34.4494C18.5529 34.4494 18.562 34.4494 18.5712 34.4584C18.5893 34.4766 18.653 34.622 18.7075 34.7854C18.998 35.5756 19.6518 36.7381 20.2151 37.4828C20.8326 38.3003 21.641 39.1721 22.3129 39.7443C22.531 39.9259 22.7307 40.0984 22.7579 40.1257C22.8125 40.1803 22.8306 40.1711 21.3502 40.7343C19.6338 41.3882 17.7628 42.0421 15.6193 42.7323C15.1073 42.8973 14.5957 43.0639 14.0847 43.2318C14.0028 43.2591 14.0301 43.2136 14.2662 42.8414C15.3288 41.1793 16.9454 37.9188 17.8537 35.6119C18.0081 35.2122 18.1625 34.8127 18.1898 34.7218C18.2261 34.5946 18.2714 34.5493 18.3895 34.4856C18.453 34.4676 18.5167 34.4494 18.5439 34.4494ZM16.7276 35.2032C16.7548 35.2214 16.2916 36.1931 15.8374 37.0832C14.9564 38.7997 13.9937 40.4891 12.7041 42.5417C12.4861 42.8958 12.2773 43.2229 12.25 43.2592C12.2046 43.3228 12.1864 43.3045 12.0411 43.023C11.7323 42.4145 11.4779 41.6334 11.3417 40.9159C11.2054 40.2074 11.2328 38.9723 11.3872 38.2094C11.5051 37.6464 11.4962 37.6555 11.7686 37.5192C12.9311 36.9289 16.6912 35.1669 16.7276 35.2032ZM32.3943 35.839V36.2204C32.3943 38.2458 32.1764 41.0249 31.8584 43.0503C31.8039 43.4045 31.7583 43.695 31.7494 43.7042C31.7494 43.7042 31.486 43.6317 31.1772 43.5407C29.815 43.1138 28.3345 42.4871 26.9994 41.7516C26.1183 41.2702 24.8378 40.48 24.8742 40.4436C24.8831 40.4346 25.2647 40.2348 25.7096 39.9986C27.49 39.0723 29.1972 38.0732 30.6777 37.0833C31.2317 36.7109 32.0671 36.1116 32.249 35.948L32.3943 35.839ZM9.87039 38.5272C9.9067 38.5272 9.89761 38.5999 9.84312 38.9268C9.80677 39.163 9.76141 39.599 9.74336 39.8986C9.67053 41.2246 9.88865 42.2056 10.5425 43.5497C10.7242 43.9221 10.8696 44.2309 10.8604 44.2399C10.7968 44.2944 4.78448 46.0565 2.89525 46.5741C2.33219 46.7284 1.84184 46.8647 1.80532 46.8737C1.74187 46.8919 1.73274 46.8829 1.75997 46.7283C1.96883 45.3934 2.98609 43.6495 4.40285 42.1782C5.34745 41.1973 6.10131 40.6252 7.39097 39.8894C8.31734 39.3628 9.74324 38.5727 9.85221 38.5363C9.8523 38.5272 9.86134 38.5272 9.87039 38.5272ZM24.0387 41.0611C24.0477 41.0521 24.2657 41.1702 24.529 41.3246C26.4727 42.4508 29.1791 43.4953 31.4859 44.0311L31.6949 44.0766L31.4042 44.2399C30.1963 44.912 26.2274 46.5649 22.1677 48.0817C21.5773 48.2996 20.9961 48.5177 20.887 48.563C20.778 48.6084 20.6781 48.6357 20.6781 48.6267C20.6781 48.6174 20.8416 48.2996 21.0504 47.9091C22.1857 45.7839 23.3301 43.1955 23.9113 41.3972C23.9842 41.2247 24.0295 41.0703 24.0387 41.0611ZM22.5946 41.5335C22.6038 41.5427 22.5311 41.7333 22.4402 41.9513C21.6501 43.8676 20.6146 45.9566 19.2886 48.2998C18.9527 48.8993 18.6711 49.3806 18.6618 49.3806C18.6529 49.3806 18.3804 49.2171 18.0534 49.0173C16.1279 47.8366 14.4205 46.3834 13.3035 44.9757L13.1399 44.7759L13.9664 44.5488C16.9272 43.7406 19.4429 42.8687 21.9406 41.797C22.2948 41.6516 22.5856 41.5335 22.5946 41.5335ZM31.5678 44.6668C31.5769 44.8758 31.1137 46.7467 30.7322 48.0998C30.4143 49.2351 30.1417 50.1253 29.6423 51.6964C29.4244 52.3868 29.2338 52.9588 29.2246 52.9588C29.2155 52.9588 29.161 52.9497 29.1065 52.9317C26.4092 52.4411 23.9933 51.76 21.7227 50.8518C21.0869 50.5974 20.1787 50.1887 20.1242 50.1433C20.1061 50.125 20.6511 49.8709 21.3413 49.5711C25.4737 47.7638 29.7605 45.7112 31.2317 44.8303C31.4042 44.7213 31.5405 44.6668 31.5678 44.6668ZM10.8513 45.3753C10.8695 45.3934 9.71606 47.0555 8.09935 49.3169C7.53629 50.1071 6.8824 51.0335 6.63723 51.3786C6.39197 51.7237 6.01964 52.2687 5.81074 52.5956L5.42911 53.186L5.02039 52.8409C4.53901 52.4412 3.70356 51.5875 3.33119 51.1152C2.55006 50.1435 2.0234 49.1172 1.8145 48.1818C1.71457 47.7458 1.71457 47.5277 1.80528 47.5006C1.94148 47.4643 4.36646 46.8921 6.63714 46.3652C7.89957 46.0747 9.3617 45.7296 9.88848 45.6024C10.4153 45.4751 10.8423 45.3753 10.8513 45.3753ZM12.0138 45.8203L12.3043 46.1473C13.6123 47.6095 14.9474 48.6905 16.564 49.6348C16.8547 49.7984 17.0726 49.9436 17.0544 49.9529C16.9909 49.9982 11.4416 51.9689 8.87135 52.859C7.42736 53.3675 6.23751 53.7762 6.22855 53.7762C6.2195 53.7762 6.13771 53.7218 6.04674 53.6582L5.88336 53.5401L6.14671 53.1587C7.00038 51.9235 8.07225 50.5703 10.4063 47.7548L12.0138 45.8203ZM19.2615 51.0062C19.2704 50.9972 19.6701 51.1424 20.1604 51.3242C21.3413 51.7692 22.2766 52.0507 23.5301 52.3686C25.0741 52.7592 27.3082 53.1406 28.6252 53.2496C28.825 53.2677 28.934 53.2859 28.8977 53.3132C28.834 53.3495 27.499 53.7946 26.5181 54.1034C24.9559 54.5937 20.1878 56.0014 16.3007 57.1186C15.5831 57.3275 14.9655 57.5001 14.9292 57.5091C14.8385 57.5273 14.5387 57.4455 14.5387 57.4091C14.5387 57.3911 14.7566 57.1096 15.02 56.8007C16.3278 55.2386 17.6267 53.4948 18.7075 51.8418C19.0071 51.3876 19.2615 51.0153 19.2615 51.0062ZM17.6629 51.0517C17.6719 51.0608 17.0272 52.0961 15.9011 53.8762C15.4196 54.63 14.8838 55.4837 14.693 55.7834C14.5114 56.0741 14.2389 56.5283 14.0846 56.7825L13.8211 57.2457L13.685 57.2094C13.3579 57.1185 11.0602 56.3101 10.4516 56.065C9.69775 55.7652 8.91671 55.402 8.33539 55.0932C7.60892 54.7026 6.70076 54.1213 6.77334 54.1033C6.79148 54.0942 8.03577 53.7581 9.53425 53.3495C13.5123 52.2685 15.7192 51.6419 17.1634 51.1879C17.4268 51.1061 17.6538 51.0425 17.6629 51.0517ZM28.9703 53.7036H28.9793C29.0156 53.7945 27.5444 57.8814 27.0084 59.1711C26.8905 59.4617 26.8452 59.5345 26.7815 59.5252C26.6271 59.5163 24.4928 59.2165 23.1939 59.0258C20.9326 58.6807 17.1361 58.0176 16.1826 57.7997L15.9646 57.7543L17.3177 57.4453C20.2241 56.7914 21.6227 56.4373 23.0395 56.0013C24.8288 55.4564 26.5999 54.7752 28.389 53.9397C28.6705 53.8125 28.9067 53.7127 28.9703 53.7036Z" fill="url(#paint0_linear_35_303)"/>
<path d="M22.2223 0.000465178C22.0225 -0.0266321 18.7982 1.13587 16.7184 1.98041C13.9119 3.1249 11.7324 4.21483 10.3881 5.15917C9.88869 5.51353 9.26189 6.14012 9.16213 6.38529C9.12582 6.47613 9.10756 6.58511 9.10756 6.69408L10.3246 7.84754L13.2218 8.77391L20.1152 10.0091L27.9985 11.3624L28.0803 10.6812C28.0531 10.6812 28.0348 10.6722 28.0078 10.6722L26.9722 10.5086L26.7634 10.1363C25.6917 8.24717 24.511 5.90395 23.8208 4.32363C23.285 3.09751 22.7764 1.68083 22.4948 0.663574C22.3403 0.04599 22.3222 0.009679 22.2225 0.000632612V0.000423H22.2223V0.000465178ZM22.0768 0.4638H22.0861C22.095 0.472762 22.1314 0.727234 22.1678 1.02677C22.322 2.29846 22.6038 3.52437 23.0488 4.85042C23.3847 5.8495 23.3847 5.79506 22.9943 5.67691C22.0679 5.42269 17.9174 4.70517 14.9112 4.28741C14.4298 4.22379 14.021 4.16025 14.021 4.15121C13.9847 4.1149 16.1916 2.96136 17.1635 2.50736C18.4077 1.93505 21.8226 0.509157 22.0768 0.4638ZM13.3216 4.53258L13.6759 4.65052C15.6012 5.30454 20.4419 6.23096 23.1123 6.44891C23.4119 6.47617 23.6663 6.50348 23.6752 6.50348C23.6843 6.51253 23.4301 6.64877 23.1031 6.8031C21.8136 7.44795 20.3967 8.23812 19.4158 8.84666C19.1252 9.02822 18.8617 9.17363 18.8255 9.17363C18.7891 9.17363 18.5985 9.13728 18.3987 9.11001L18.0354 9.05544L17.1273 8.16533C15.5288 6.61237 14.2754 5.41356 13.794 4.95935L13.3216 4.53258ZM12.9584 4.81407L14.239 6.4126C14.9383 7.29357 15.6467 8.15633 15.8012 8.34697C15.9555 8.53783 16.0827 8.69229 16.0737 8.70133C16.0373 8.72856 14.221 8.37428 13.2581 8.15641C12.2682 7.92929 11.8595 7.82031 11.251 7.62967L10.7514 7.46612V7.33889C10.7605 6.73035 11.5326 5.82219 12.8404 4.8959L12.9584 4.81407ZM23.8389 6.99383C23.8752 6.99383 23.9205 7.07554 24.0295 7.32075C24.3383 8.00187 25.3012 9.83657 25.5371 10.1907C25.61 10.3089 25.7369 10.318 24.4565 10.1091C21.3777 9.60941 20.3876 9.44611 20.3876 9.42793C20.3876 9.41889 20.4785 9.35527 20.5965 9.29165C21.5502 8.76499 22.5128 8.09284 23.3666 7.37532C23.5755 7.20273 23.7663 7.03927 23.8025 7.01196C23.8115 6.99383 23.8298 6.98478 23.8389 6.99383Z" fill="url(#paint1_linear_35_303)"/>
<path d="M9.22548 6.25812C9.22548 6.25812 9.02579 6.57612 9.21648 7.04842C9.33467 7.33895 9.67973 7.6931 10.0702 8.05646C10.0702 8.05646 14.1117 11.9981 14.6022 12.5613C16.8363 15.1405 17.8082 17.6836 17.899 21.1894C17.9535 23.4417 17.5266 25.4216 16.464 27.7195C14.5749 31.8428 10.5878 36.393 4.43915 41.4428L5.33843 41.143C5.91966 40.707 6.70983 40.2439 8.56254 39.2267C12.8402 36.8833 17.6538 34.7309 23.5573 32.5149C32.058 29.3178 46.0357 25.5759 53.9915 24.359L54.8181 24.2318L54.6909 24.032C53.9644 22.9057 53.4648 22.2065 52.8653 21.4618C51.1216 19.3002 49.0056 17.5474 46.417 16.0942C42.8568 14.1053 38.252 12.5522 32.4214 11.3988C31.3225 11.1807 28.9066 10.763 26.9448 10.4633C22.7851 9.81858 20.0968 9.37347 17.1361 8.86486C16.0736 8.68314 14.484 8.41074 13.4305 8.18374C12.8856 8.06555 11.8412 7.82038 11.0238 7.53885C10.3699 7.28442 9.4253 7.03012 9.22548 6.25812ZM11.5688 8.52876C11.5778 8.5198 11.7231 8.57412 11.9139 8.63774C12.259 8.75568 12.704 8.89196 13.2309 9.03737C13.6296 9.14701 14.0292 9.25296 14.4298 9.35521C14.9747 9.49137 15.4287 9.61856 15.4378 9.61856C15.5015 9.68218 16.4188 12.6155 16.7276 13.7417C16.8455 14.1687 16.9365 14.5319 16.9274 14.5319C16.9181 14.5411 16.8183 14.3866 16.7003 14.1778C15.6376 12.3068 13.9574 10.4087 12.0138 8.88279C11.7596 8.70131 11.5688 8.53781 11.5688 8.52876ZM16.0372 9.76393C16.0827 9.76393 16.2825 9.79119 16.5276 9.84564C18.0716 10.1907 20.8417 10.7175 22.6127 11.0173C22.9124 11.0626 23.1486 11.1172 23.1486 11.1353C23.1486 11.1536 23.0395 11.217 22.9032 11.2898C22.6037 11.4441 21.3956 12.1615 20.9961 12.434C19.9879 13.1061 19.0798 13.8327 18.4258 14.4866C18.1625 14.75 17.9353 14.9679 17.9353 14.9679C17.9353 14.9679 17.881 14.8136 17.8354 14.6228C17.5086 13.3603 16.8273 11.4894 16.2098 10.1725C16.1098 9.9637 16.028 9.77293 16.028 9.75484C16.028 9.77298 16.028 9.76393 16.0372 9.76393ZM23.9024 11.2625C23.9569 11.2806 24.0477 11.5894 24.2293 12.2705C24.5654 13.5875 24.7198 15.0588 24.6653 16.4302C24.6471 16.8117 24.629 17.1658 24.6107 17.2114L24.5835 17.3021L24.1113 17.1478C23.1395 16.839 21.5592 16.3757 20.206 15.9943C19.4339 15.7854 18.8074 15.5947 18.8074 15.5765C18.8074 15.522 19.9336 14.3958 20.4149 13.969C21.3321 13.1606 23.8206 11.2352 23.9024 11.2625ZM24.529 11.3532C24.5564 11.3261 28.2891 11.9708 29.9875 12.2978C31.25 12.543 33.0845 12.9245 33.1935 12.97C33.248 12.988 33.0572 13.097 32.4487 13.3695C30.051 14.4503 28.2708 15.422 26.5 16.6028C26.0368 16.9116 25.6462 17.1658 25.6371 17.1658C25.6281 17.1658 25.619 16.9025 25.619 16.5846C25.619 14.8591 25.2739 13.1152 24.638 11.6439C24.5744 11.4986 24.52 11.3624 24.529 11.3532ZM34.1834 13.2606C34.2107 13.2878 34.0925 14.0235 33.9836 14.4594C33.6566 15.8127 32.7757 17.82 31.695 19.7089C31.5041 20.045 31.3316 20.3175 31.3133 20.3265C31.2954 20.3356 31.0501 20.1993 30.7685 20.0358C29.715 19.4182 28.5162 18.837 27.2083 18.292C26.8451 18.1377 26.5272 18.0104 26.5181 17.9924C26.4544 17.9378 29.3789 16.0033 30.9229 15.077C32.149 14.3323 34.147 13.2242 34.1834 13.2606ZM34.8736 13.3695C34.9554 13.3695 36.6084 13.8237 37.471 14.078C39.6054 14.7138 42.0576 15.6128 43.656 16.3394L44.3189 16.6392L43.8559 16.7481C39.9507 17.6472 36.6084 18.6827 33.3841 19.9905C33.1207 20.0995 32.8846 20.1903 32.8666 20.1903C32.8483 20.1903 32.9392 19.9815 33.0572 19.7271C34.029 17.6654 34.6557 15.513 34.81 13.6783C34.8192 13.5057 34.8463 13.3695 34.8736 13.3695ZM18.4168 17.1478C18.444 17.1204 19.7064 17.4202 20.3876 17.6108C21.4229 17.9015 23.6208 18.6371 23.6208 18.6917C23.6208 18.7007 23.3756 18.9096 23.0851 19.164C21.8953 20.154 20.7509 21.1983 19.3794 22.5243C18.9707 22.915 18.6256 23.2328 18.6076 23.2328C18.5893 23.2328 18.5804 23.1782 18.5893 23.1056C18.7982 21.5797 18.7529 19.618 18.4622 17.6291C18.4349 17.3747 18.4077 17.1568 18.4168 17.1478ZM44.9459 17.1751C44.9638 17.1931 44.3645 18.1377 43.9831 18.6735C43.4383 19.4545 42.6388 20.4901 40.8314 22.7606C39.878 23.9593 38.8061 25.3127 38.4521 25.7667C38.0886 26.2208 37.789 26.6022 37.7798 26.6022C37.7708 26.6022 37.6529 26.4388 37.5256 26.239C36.5084 24.7132 35.2913 23.3781 33.8472 22.1793C33.5748 21.9521 33.2752 21.7069 33.1753 21.6343C33.0754 21.5616 32.9936 21.489 32.9936 21.4799C32.9936 21.4527 34.5374 20.7896 35.7092 20.3174C37.7618 19.4818 40.5588 18.4828 42.657 17.8379C43.756 17.4929 44.9276 17.1568 44.9459 17.1751ZM45.6451 17.3566C45.6813 17.3476 45.8994 17.4565 46.1628 17.6108C48.3698 18.8732 50.5313 20.499 52.2388 22.1702C52.7202 22.6425 53.9099 23.8777 53.8917 23.8867C53.8917 23.8867 53.4739 23.923 52.9835 23.9593C49.1599 24.2501 44.2647 25.0582 39.5601 26.1935C39.2422 26.2661 38.9608 26.3297 38.9425 26.3297C38.9245 26.3297 39.2786 25.9755 39.7237 25.5487C42.4846 22.8876 43.7471 21.2074 45.2365 18.2102C45.4453 17.7653 45.627 17.3839 45.6451 17.3566C45.6361 17.3566 45.6361 17.3566 45.6451 17.3566ZM25.4191 19.4274C25.5463 19.4545 26.727 20.0088 27.617 20.4537C28.4344 20.8622 29.6606 21.5163 29.7241 21.5707C29.7331 21.5797 29.2971 21.8068 28.7615 22.0702C27.0539 22.924 25.5917 23.7322 24.0658 24.6586C23.6299 24.922 23.2667 25.1401 23.2576 25.1401C23.2213 25.1401 23.2303 25.1036 23.4756 24.6586C24.293 23.1693 24.9468 21.3891 25.3193 19.6544C25.3555 19.5182 25.3919 19.4274 25.4191 19.4274ZM24.2383 19.6453C24.2656 19.6726 23.9569 20.7896 23.7662 21.3982C23.3937 22.5516 22.7671 23.9957 22.1587 25.0855C22.0132 25.3397 21.7953 25.7121 21.6772 25.921L21.4502 26.2843L20.9416 25.794C20.3513 25.2217 19.8699 24.8676 19.2524 24.5496C19.007 24.4226 18.8164 24.3135 18.8164 24.2954C18.8164 24.2227 20.3694 22.815 21.5592 21.7978C22.4129 21.0621 24.2112 19.6181 24.2383 19.6453ZM31.4589 22.6152L31.9039 22.9058C32.9209 23.5689 34.1197 24.4498 35.0372 25.2217C35.5547 25.6485 36.5537 26.5478 36.7537 26.7657L36.8625 26.8839L36.1271 27.0928C31.9674 28.2461 28.7523 29.2724 25.0013 30.653C24.5835 30.8073 24.2293 30.9345 24.202 30.9345C24.1477 30.9345 24.1021 30.9798 25.0377 30.117C27.4354 27.9102 29.5606 25.476 31.1409 23.1056L31.4589 22.6152ZM29.5606 23.0875C29.5787 23.1056 28.3345 24.8584 27.5897 25.8484C26.6997 27.0291 25.1193 29.009 24.0295 30.2986C23.5755 30.8345 23.185 31.2795 23.1668 31.2886C23.1395 31.2977 23.1304 31.1615 23.1304 30.9526C23.1304 29.8535 22.8489 28.6819 22.3584 27.683C22.1495 27.2652 22.1132 27.1653 22.1587 27.1199C22.3312 26.9655 24.9741 25.4578 26.6452 24.5588C27.7714 23.9594 29.5332 23.0693 29.5606 23.0875ZM18.0806 25.903C18.1079 25.903 18.3169 26.0119 18.553 26.1391C19.1343 26.457 19.652 26.8111 20.1151 27.1927C20.1332 27.2108 19.8972 27.4016 19.5884 27.6285C18.7255 28.2461 17.4177 29.2361 16.655 29.8447C15.8555 30.4804 15.8285 30.4986 15.9192 30.3624C16.5187 29.445 16.8183 28.9273 17.1363 28.2644C17.4177 27.6741 17.6992 26.9747 17.899 26.3662C17.9717 26.1028 18.0625 25.903 18.0806 25.903ZM21.1415 28.3006C21.1867 28.2917 21.2414 28.3733 21.4865 28.7366C22.0042 29.5085 22.4038 30.544 22.5039 31.3795L22.5218 31.5613L21.2777 32.0426C19.0525 32.9054 17 33.7591 15.6103 34.3948C15.2198 34.5765 14.5386 34.9034 14.0937 35.1215C13.6486 35.3484 13.2853 35.521 13.2853 35.512C13.2853 35.5029 13.5668 35.294 13.9119 35.0396C16.6277 33.0689 18.9799 30.9072 20.7418 28.7457C20.9326 28.5186 21.1052 28.3097 21.1232 28.3007L21.1415 28.3006ZM19.7337 28.6458C19.7701 28.6821 18.7347 29.8537 18.0263 30.5711C16.2735 32.3604 14.5387 33.7591 12.3862 35.1215C12.1138 35.294 11.8686 35.4484 11.8413 35.4666C11.7777 35.5029 11.8594 35.412 12.804 34.3857C13.4035 33.7409 13.8575 33.196 14.3752 32.524C14.7203 32.079 14.7839 32.0154 15.2835 31.6611C16.6186 30.6983 19.6974 28.6094 19.7337 28.6458Z" fill="url(#paint2_radial_35_303)"/>
<defs>
<linearGradient id="paint0_linear_35_303" x1="9.03993" y1="54.0648" x2="13.3848" y2="51.4975" gradientUnits="userSpaceOnUse">
<stop stop-color="#909CA9"/>
<stop offset="1" stop-color="#EDEDEE"/>
</linearGradient>
<linearGradient id="paint1_linear_35_303" x1="9.13942" y1="5.66367" x2="12.6354" y2="5.66367" gradientUnits="userSpaceOnUse">
<stop stop-color="#939FAB"/>
<stop offset="1" stop-color="#DCDEE1"/>
</linearGradient>
<radialGradient id="paint2_radial_35_303" cx="0" cy="0" r="1" gradientUnits="userSpaceOnUse" gradientTransform="translate(26.7803 21.6974) rotate(-171.457) scale(4.50733 9.0169)">
<stop stop-color="#EE352C"/>
<stop offset="1" stop-color="#A91D22"/>
</radialGradient>
</defs>
</svg>
