<svg viewBox="0 0 60 60" fill="none" xmlns="http://www.w3.org/2000/svg">
<path d="M51 0H9C4.02944 0 0 4.02944 0 9V51C0 55.9706 4.02944 60 9 60H51C55.9706 60 60 55.9706 60 51V9C60 4.02944 55.9706 0 51 0Z" fill="#3178C6"/>
<path d="M27.3047 33.2812H34.8047V28.4765H13.8281V33.2812H21.3281V54.7265H27.3047V33.2812ZM37.1484 53.5546C38.0977 54.0468 39.2578 54.4101 40.5469 54.6562C41.8359 54.9023 43.2422 55.0195 44.6484 55.0195C46.0547 55.0195 47.3438 54.8906 48.6328 54.621C49.9219 54.3515 50.9766 53.9062 51.9141 53.332C52.8633 52.7109 53.6719 51.9257 54.1406 50.871C54.6094 49.8164 54.9727 48.6445 54.9727 47.121C54.9727 46.0546 54.8086 45.1289 54.4922 44.3085C54.1758 43.4882 53.7188 42.7851 53.0859 42.1992C52.4883 41.5781 51.7969 41.0273 50.9766 40.5585C50.1562 40.0898 49.2188 39.5976 48.1641 39.1523C47.3906 38.8359 46.7578 38.5312 46.0547 38.2265C45.4453 37.9218 44.918 37.6171 44.5312 37.3125C44.0977 36.996 43.7695 36.6679 43.5352 36.3281C43.3008 35.9765 43.1836 35.5898 43.1836 35.1562C43.1836 34.7578 43.2879 34.3945 43.5 34.0664C43.7121 33.7382 44.0039 33.4687 44.3789 33.2343C44.7539 33 45.2227 32.8242 45.7852 32.6953C46.3359 32.5664 46.9453 32.5078 47.6602 32.5078C48.1523 32.5078 48.668 32.5441 49.1836 32.6179C49.7227 32.6917 50.2734 32.8054 50.8242 32.9578C51.375 33.1101 51.9141 33.2976 52.4648 33.532C52.9805 33.7664 53.4609 34.0359 53.8711 34.3406V28.8328C52.9805 28.4929 51.9961 28.2351 50.9414 28.071C49.8867 27.907 48.7148 27.825 47.3086 27.825C45.9023 27.825 44.6133 27.9773 43.3242 28.2703C42.0352 28.5632 40.9805 29.032 40.043 29.6765C39.0938 30.3093 38.4023 31.0828 37.8164 32.1375C37.2656 33.1218 36.9961 34.2468 36.9961 35.6531C36.9961 37.4109 37.5 38.9343 38.5195 40.1062C39.5273 41.3953 41.0977 42.3328 43.0898 43.2703C43.8984 43.5984 44.6133 43.9265 45.3164 44.2429C46.0195 44.5593 46.6055 44.8875 47.0742 45.2273C47.5781 45.5671 47.9766 45.9421 48.2461 46.3406C48.5391 46.739 48.6914 47.2078 48.6914 47.7468C48.6914 48.1218 48.6 48.4734 48.4219 48.8015C48.2438 49.1296 47.9648 49.4109 47.5898 49.6453C47.2148 49.8796 46.7578 50.0671 46.1836 50.2078C45.6328 50.3367 45.0117 50.407 44.1914 50.407C42.9023 50.407 41.6133 50.1843 40.4414 49.739C39.1523 49.2937 37.9805 48.6257 37.1484 47.9296V53.5546Z" fill="white"/>
</svg>
