<svg viewBox="0 0 22 30" fill="none" xmlns="http://www.w3.org/2000/svg">
<path d="M10.9991 0C4.93524 0 2.60025e-06 4.93721 0 11.0011C-3.80037e-06 21.6708 10.3799 29.7822 10.3799 29.7822C10.7446 30.0726 11.2615 30.0726 11.6261 29.7822C11.6261 29.7822 22.008 21.6708 22.008 11.0011C22.008 4.93721 17.063 0 10.9991 0ZM10.9991 6.00254C13.749 6.00254 16.0054 8.25123 16.0055 11.0011C16.0055 13.7509 13.749 16.0055 10.9991 16.0055C8.24926 16.0055 6.00057 13.7509 6.00058 11.0011C6.00059 8.25123 8.24927 6.00254 10.9991 6.00254Z" fill="#7A38FE"/>
</svg>
