<svg viewBox="0 0 30 30" fill="none" xmlns="http://www.w3.org/2000/svg">
<path d="M11.3205 2.46782L12.5374 4.64831C13.6356 6.61608 13.1947 9.19747 11.4651 10.9271C11.4651 10.9271 9.36727 13.0252 13.1709 16.8291C16.9734 20.6316 19.0729 18.5349 19.0729 18.5349C20.8026 16.8052 23.3839 16.3644 25.3517 17.4626L27.5321 18.6795C30.5036 20.3377 30.8544 24.5047 28.2427 27.1166C26.6734 28.686 24.7507 29.9072 22.6254 29.9876C19.0477 30.1234 12.9718 29.2179 6.87694 23.123C0.782122 17.0282 -0.123352 10.9523 0.0122851 7.37454C0.0928538 5.24925 1.314 3.32668 2.8834 1.75731C5.49518 -0.854474 9.66219 -0.503549 11.3205 2.46782Z" fill="#7A38FE"/>
</svg>
